<svg xmlns="http://www.w3.org/2000/svg" width="572" height="161" fill="none" viewBox="0 0 572 161">
  <path fill="#312E81" d="M79.87 57.964c-5.918.121-11.698 2.86-15.673 7.21a22.186 22.186 0 0 0-5.854 12.986c-.162 2.698-.08 5.437.68 8.045 2.13 8.053 9.108 14.559 17.293 16.098 1.158.308 2.364.251 3.554.372V57.964Zm0-27.383c-5.642.146-11.253 1.207-16.532 3.2-6.258 2.406-12.063 6.035-16.88 10.702-7.067 6.675-12.079 15.49-14.29 24.944-.793 3.59-1.303 7.283-1.23 10.97-.04 2.39.057 4.795.47 7.161l-.186-.275.388.915-.218-.308c.032.122.089.39.105.535 1.239 7.761 4.323 15.223 8.978 21.574 4.47 6.198 10.387 11.318 17.131 14.907 6.825 3.678 14.525 5.622 22.264 5.8v-13.221a44.453 44.453 0 0 1-4.29-.292 38.665 38.665 0 0 1-16.71-6.675c-4.275-3.111-7.943-7.073-10.598-11.658-.405-.648-.729-1.353-1.117-2.01-.438-.85-.77-1.75-1.19-2.616-.244-.6-.438-1.207-.673-1.783-.833-2.3-1.392-4.706-1.78-7.137a41.624 41.624 0 0 1 .016-10.759c1.109-7.202 4.307-14.104 9.213-19.516 4.08-4.61 9.326-8.199 15.123-10.273 2.623-1.012 5.408-1.636 8.21-1.984a28.311 28.311 0 0 1 3.796-.292V30.58ZM67.338 1.027C71.483.387 75.668-.027 79.87.014v12.193a71.199 71.199 0 0 0-9.634.875c-2.137.388-4.283.81-6.38 1.41-1.23.242-2.412.704-3.627 1.036-2.647.908-5.254 1.928-7.78 3.111a21.47 21.47 0 0 0-1.068.519c-.389.202-.778.389-1.174.6-13.57 7.047-24.71 18.746-30.854 32.786a62.309 62.309 0 0 0-2.93 7.818c-2.624 8.57-3.393 17.628-2.535 26.532.324 2.698.77 5.371 1.344 8.02.777 3.24 1.724 6.409 2.971 9.503 5.773 14.915 17.083 27.488 31.13 35.063.372.203.752.381 1.133.567a52.36 52.36 0 0 0 5.36 2.463c2.363 1.013 4.833 1.766 7.286 2.52 2.793.721 5.618 1.361 8.468 1.782 1.271.122 2.542.316 3.821.405 1.247.203 2.51.041 3.749.251l.72.033v13.497a82.282 82.282 0 0 1-14.726-1.467c-15.812-3.046-30.603-11.05-41.873-22.546a80.34 80.34 0 0 1-14.176-19.419c-2.93-5.558-5.165-11.488-6.711-17.588-.81-3.217-1.4-6.49-1.822-9.77-1.311-11.278-.348-22.855 3.1-33.703 4.05-12.938 11.482-24.798 21.294-34.155C36.525 11.21 51.502 3.66 67.338 1.027ZM79.87.014h.413c5.7-.122 11.383.559 16.961 1.701 9.068 1.969 17.82 5.477 25.673 10.427 14.216 8.863 25.575 22.214 31.979 37.688 2.582 6.222 4.388 12.776 5.303 19.435a79.563 79.563 0 0 1-2.461 33.807c-.324 1.199-.729 2.382-1.126 3.565a80.83 80.83 0 0 1-9.707 19.233 32.77 32.77 0 0 0-.558.802c-6.858 9.738-15.869 17.961-26.223 23.842a61.22 61.22 0 0 1-4.226 2.236c-.43.252-.891.454-1.344.657a76.914 76.914 0 0 1-5.821 2.463c-9.19 3.499-19.042 5.201-28.863 5.128v-13.497c.891.016 1.79.016 2.68-.033.64-.129 1.304-.073 1.96-.105 2.096-.024 4.177-.365 6.266-.551 2.29-.397 4.59-.778 6.84-1.41a33.4 33.4 0 0 1 1.604-.38c1.23-.413 2.501-.729 3.716-1.199a63.626 63.626 0 0 0 7.594-3.119c13.034-6.303 23.875-16.924 30.595-29.757.129-.292.283-.599.445-.891.34-.681.688-1.369 1.004-2.074.761-1.596 1.4-3.257 2.016-4.91.461-1.142.801-2.325 1.19-3.508.21-.729.413-1.49.664-2.22.404-1.62.793-3.256 1.117-4.893.073-.477.162-.98.243-1.474-5.959.024-11.934 0-17.892.024-1.45 7.445-4.866 14.453-9.505 20.408-5.57 7.17-13.132 12.784-21.616 16.024-6.016 2.334-12.484 3.411-18.92 3.273v-13.221c1.934.04 3.87-.065 5.796-.292 3.676-.518 7.27-1.596 10.654-3.135a36.786 36.786 0 0 0 7.101-4.31c5.893-4.48 10.354-10.767 12.743-17.758.097-.324.202-.68.315-1.013-5.4.024-10.792.024-16.175 0-1.636 3.135-4.105 5.768-6.98 7.802-3.829 2.673-8.524 4.042-13.196 3.937-.089-.024-.178-.024-.259-.041V57.964c.357-.025.72-.025 1.077 0 2.898-.049 5.789.615 8.444 1.758a22.087 22.087 0 0 1 7.789 5.541 20.853 20.853 0 0 1 2.663 3.565c.073.121.211.372.275.494 5.481.048 10.962.024 16.443.024-2.631-9.082-8.938-16.989-17.09-21.752-4.42-2.593-9.4-4.213-14.468-4.902-1.708-.145-3.433-.243-5.133-.202V30.58a49.793 49.793 0 0 1 4.259.066c.097.024.291.064.397.08 3.4.146 6.76.835 10.047 1.702 7.909 2.3 15.261 6.513 21.154 12.282 6.04 5.825 10.631 13.189 13.067 21.217.421 1.118.632 2.301.98 3.42 6.048-.025 12.087 0 18.119 0a38.66 38.66 0 0 0-.138-1.014c-.089-.38-.137-.753-.194-1.126-.202-.745-.3-1.49-.453-2.236-.243-.875-.454-1.766-.672-2.657-.243-.81-.478-1.596-.737-2.406-.672-2.277-1.506-4.496-2.445-6.676-6.833-15.927-19.989-29.035-35.971-35.735-5.893-2.512-12.136-4.083-18.483-4.877-.753-.081-1.514-.057-2.242-.227a59.63 59.63 0 0 0-6.688-.186m124.304 47.816c4.681-2.067 9.934-2.316 14.951-1.78 4.569.473 9.15 2.44 12.001 6.15 1.668 2.066 2.739 4.53 3.71 6.97-3.946 1.084-8.005 1.806-11.976 2.74-.597-1.843-1.544-3.61-3.212-4.706-3.311-2.266-8.378-1.606-10.83 1.63-1.805 2.266-2.179 5.267-2.278 8.068-.05 2.962.037 6.012 1.058 8.813.846 2.465 3.199 4.27 5.788 4.52a7.854 7.854 0 0 0 3.001-.025c1.718-.212 3.398-1.021 4.444-2.416 1.319-1.63 2.004-3.672 2.44-5.676 3.996.896 7.855 2.402 11.851 3.286.137 1.195-.46 2.316-.834 3.436-1.494 4.046-4.394 7.631-8.303 9.548-4.233 2.142-9.125 2.129-13.756 1.918-3.486-.337-7.059-1.021-10.047-2.938-5.452-3.573-8.701-9.935-9.025-16.37-.411-4.258-.037-8.665 1.382-12.711 1.581-4.631 5.154-8.515 9.635-10.457Zm135.444 2.838c3.697-3.087 8.615-4.519 13.408-4.332 2.888-.062 5.788.137 8.639.66 1.482.324 2.975.772 4.258 1.63-.648 4.22-1.332 8.416-1.855 12.636-3.175-1.232-6.2-3.012-9.623-3.473-1.233-.249-2.614-.274-3.722.436-.66.585-1.233 1.767-.486 2.514.946.934 2.278 1.27 3.511 1.644 2.751.66 5.514 1.357 8.116 2.527 2.776 1.257 5.017 3.784 5.677 6.797 1.008 4.407.012 9.374-3.112 12.735-2.403 2.552-5.664 4.183-9.063 4.98-4.345 1.083-8.901.834-13.295.087-2.739-.623-5.54-1.307-8.03-2.677 1.133-3.597 1.818-7.357 2.776-11.017 2.764 1.544 5.876 2.403 9.026 2.702 1.419.249 2.875.037 4.257-.25 1.183-.31 2.216-1.593 1.643-2.825-1.207-1.606-3.398-1.793-5.203-2.254-3.262-.821-6.835-1.394-9.437-3.71-2.651-2.29-3.323-6.087-2.863-9.398.386-3.71 2.502-7.096 5.378-9.412Zm-85.499-4.071h8.739v22.857c-.996 1.954-1.581 4.12-2.465 6.137.822.025 1.644.025 2.465.025v9.735c-2.116 0-4.245.025-6.361.075-.448 1.506-1.071 2.963-1.594 4.456-5.266-.025-10.569-.012-15.847 0-.523-.012-1.046-.087-1.556-.161 1.618-3.56 2.826-7.308 4.307-10.956 4.096-10.718 8.241-21.424 12.312-32.167Zm8.739 0c2.901.013 5.814 0 8.727-.012 5.515 14.428 11.054 28.857 16.582 43.285h-17.379c-.498-1.494-1.133-2.95-1.581-4.457a360.29 360.29 0 0 0-6.349-.062v-9.735c.809 0 1.643-.013 2.465-.013a567.173 567.173 0 0 1-2.378-6.324l-.087.175m28.97-22.844c6.398 0 12.797-.025 19.196-.012v11.764h-4.93c.013 2.664.025 5.315 0 7.98 1.643.024 3.287.024 4.93.024v11.503h-4.917v12.001c-4.756 0-9.511.025-14.279-.013.025-14.415.025-28.831 0-43.247Zm19.196-.012c2.378.012 4.755.012 7.133.037 5.565.834 10.021 5.415 11.578 10.706 1.207 4.519.759 9.585-1.731 13.606-1.817 2.826-4.444 5.279-7.693 6.325-1.469.51-3.05.635-4.594.597h-4.693V78.56c.56-.012 1.095-.025 1.643-.025 1.469-.062 2.552-1.22 3.162-2.464.15-1.183.349-2.503-.324-3.56-.634-1.159-1.879-2.005-3.224-1.955h-1.257m60.626 16.73c.025-9.498-.025-18.997.025-28.508 4.743.025 9.498.025 14.254.013 0 9.05-.025 18.113 0 27.163-.013 1.394 1.033 2.565 2.228 3.162 2.477 1.37 5.975.635 7.482-1.805.411-1.22.261-2.515.286-3.785.012-8.253-.025-16.494.012-24.748 4.743.025 9.499.013 14.242.013 0 9.498.012 18.997 0 28.52 0 2.64-.896 5.253-2.527 7.332-2.876 3.723-7.283 6.1-11.851 7.034-4.121.672-8.441.598-12.424-.71-3.598-1.157-6.885-3.336-9.225-6.324-1.581-2.116-2.527-4.718-2.502-7.357Zm42.288-28.496c4.744 0 9.499.013 14.254-.012.013 10.507.013 21.014-.012 31.52 4.021.026 8.054-.012 12.063 0 .012 3.935 0 7.843.012 11.752-8.776.025-17.552 0-26.317.013V58.79Zm30.027 0c10.308 0 20.615.025 30.923-.012.199 3.884 0 7.78.1 11.665-5.59.236-11.18.05-16.782.1.013 1.331.025 2.663 0 4.008 5.59 0 11.18-.013 16.769.012 0 3.872-.037 7.756.025 11.64-5.59.236-11.192.037-16.781.1 0 1.332.012 2.664-.013 3.996h16.769c-.025 3.934 0 7.842 0 11.751-10.345.013-20.69.013-31.023 0 .013-14.415 0-28.844.013-43.26Zm90.577 25.563c2.377.112 4.792-.1 7.17-.05v3.075c-1.27-.013-2.54.062-3.809.012 0 1.42 0 2.85-.013 4.282 1.282-.062 2.552.025 3.822-.012v3.797c-1.046-.884-2.54-.697-3.809-.76v7.345c-1.121 0-2.241-.012-3.361 0 0-5.9.012-11.801 0-17.69Zm7.17-.05c1.631.037 3.237.187 4.818.647 2.427 1.42 3.037 4.892 1.606 7.22-.722 1.196-2.067 1.83-3.386 2.055 2.601 2.041 3.747 5.216 5.714 7.78-1.307.025-2.627.025-3.934.037-1.507-2.178-2.751-4.58-4.669-6.436-.049-.062-.099-.1-.149-.149V91.66c.759-.012 1.531-.05 2.291-.187 1.967-.31 2.054-3.485.112-3.933a15.589 15.589 0 0 0-2.403-.162m10.519-3.038c2.204.137 4.482-.087 6.723-.025v3.063c-1.121-.037-2.266.087-3.361.012v4.88c1.108-.037 2.24.038 3.361-.025v3.088c-1.133.012-2.266-.063-3.361-.013 0 2.216.012 4.432 0 6.648l-3.386.012c.049-5.888.037-11.764.024-17.64Zm6.723-.025c1.444.038 2.9.212 4.282.673 3.237 2.016 3.312 7.494.013 9.448-1.332.747-2.801.884-4.295.897v-3.088c.685-.05 1.357-.137 2.017-.36 1.63-.61 1.805-3.113.311-3.972-.747-.373-1.531-.498-2.328-.535m-60.689.485c2.428-4.394 9.437-5.253 12.76-1.469.81.86 1.158 2.017 1.569 3.1-1.12.212-2.228.448-3.361.61-.672-3.2-5.104-3.959-7.27-1.855-1.37 1.183-1.619 3.125-1.594 4.818-.025 1.805.324 3.86 1.843 5.03 1.63 1.182 4.145 1.257 5.651-.187.76-.673 1.046-1.681 1.407-2.59 1.108.299 2.216.635 3.336.959-.597 1.842-1.518 3.747-3.286 4.73-2.963 1.669-7.034 1.382-9.598-.946-1.531-1.32-2.303-3.274-2.664-5.203-.162-2.378-.05-4.905 1.207-6.997Zm22.333-3.523a11.301 11.301 0 0 1 2.664-.323v3.012c-2.141.063-4.208 1.307-4.88 3.436-.436 2.278-.598 4.88.809 6.86.934 1.307 2.502 1.966 4.071 1.966v3.063c-2.477.012-4.967-.884-6.598-2.814-1.942-2.39-2.203-5.676-1.768-8.614.411-3.038 2.652-5.876 5.702-6.586Zm2.664-.323c2.365 0 4.718.796 6.312 2.577 2.128 2.29 2.502 5.639 2.091 8.614-.349 2.614-1.88 5.154-4.345 6.274-1.245.573-2.651.859-4.058.872v-3.063c1.581.013 3.162-.635 4.083-1.966 1.32-1.98 1.307-4.557.76-6.798-.436-1.767-1.98-2.987-3.685-3.423a4.534 4.534 0 0 0-1.158-.075M568 99h3.361v3.374c-1.108 0-2.228 0-3.349-.013C568 101.241 568 100.133 568 99Z"/>
</svg>
