<svg xmlns="http://www.w3.org/2000/svg" width="282" height="339" fill="none" viewBox="0 0 282 339">
  <path fill="#312E81" d="M139.535 89.069c-9.101.186-17.989 4.394-24.101 11.079-5.092 5.428-8.304 12.561-9.001 19.956-.249 4.145-.125 8.353 1.046 12.361 3.274 12.375 14.005 22.371 26.591 24.736 1.78.473 3.635.386 5.465.573V89.068Zm0-42.078c-8.677.224-17.304 1.855-25.421 4.917-9.623 3.698-18.549 9.275-25.956 16.445-10.868 10.258-18.574 23.803-21.972 38.331-1.22 5.515-2.005 11.191-1.893 16.855-.062 3.673.087 7.37.722 11.005l-.286-.423.598 1.407-.337-.473c.05.186.138.597.162.821 1.905 11.926 6.648 23.392 13.806 33.152 6.872 9.523 15.972 17.391 26.342 22.906 10.495 5.652 22.333 8.639 34.235 8.913v-20.316c-2.204-.038-4.42-.2-6.598-.449-9.225-1.344-18.101-4.88-25.695-10.257-6.573-4.781-12.212-10.868-16.296-17.914-.622-.996-1.12-2.079-1.717-3.088-.673-1.307-1.183-2.689-1.83-4.021-.374-.921-.673-1.855-1.034-2.739-1.282-3.535-2.14-7.232-2.739-10.967a63.911 63.911 0 0 1 .025-16.532c1.706-11.067 6.623-21.674 14.167-29.99 6.275-7.083 14.341-12.598 23.255-15.785 4.033-1.556 8.316-2.514 12.623-3.05a43.59 43.59 0 0 1 5.839-.448v-18.3ZM120.264 1.578c6.374-.984 12.81-1.619 19.271-1.557v18.736c-4.955.1-9.91.573-14.815 1.345-3.286.597-6.585 1.244-9.809 2.166-1.893.373-3.71 1.083-5.577 1.593-4.071 1.394-8.08 2.963-11.964 4.78-.548.25-1.095.51-1.643.797-.598.311-1.195.598-1.805.921C73.057 41.19 55.928 59.166 46.479 80.74a95.709 95.709 0 0 0-4.507 12.013c-4.033 13.171-5.216 27.089-3.896 40.771a132.577 132.577 0 0 0 2.066 12.324c1.196 4.979 2.652 9.847 4.57 14.602 8.875 22.919 26.266 42.24 47.865 53.879.573.312 1.158.585 1.743.872a80.759 80.759 0 0 0 8.241 3.784c3.635 1.556 7.432 2.714 11.204 3.872 4.295 1.108 8.64 2.091 13.022 2.739 1.954.186 3.909.485 5.876.622 1.917.311 3.859.062 5.764.386l1.108.05v20.74a126.585 126.585 0 0 1-22.645-2.254c-24.313-4.68-47.057-16.98-64.386-34.645a123.456 123.456 0 0 1-21.798-29.84c-4.506-8.54-7.942-17.652-10.32-27.027-1.245-4.942-2.154-9.971-2.8-15.013-2.018-17.329-.536-35.118 4.767-51.787 6.224-19.881 17.653-38.106 32.74-52.485 17.79-17.117 40.82-28.72 65.171-32.765ZM139.535.02h.634c8.765-.186 17.504.86 26.081 2.615 13.943 3.025 27.4 8.415 39.475 16.021 21.861 13.62 39.327 34.135 49.174 57.913 3.971 9.56 6.747 19.632 8.154 29.865 2.489 17.304 1.195 35.18-3.785 51.949-.498 1.842-1.12 3.66-1.73 5.477a124.184 124.184 0 0 1-14.926 29.554 49.81 49.81 0 0 0-.859 1.233c-10.545 14.963-24.4 27.599-40.322 36.637-2.104 1.232-4.295 2.365-6.499 3.436-.66.386-1.369.697-2.066 1.008a117.154 117.154 0 0 1-8.951 3.784c-14.13 5.378-29.28 7.993-44.38 7.881v-20.74c1.369.025 2.751.025 4.12-.05.984-.199 2.004-.112 3.013-.162 3.224-.037 6.423-.56 9.635-.846 3.523-.61 7.059-1.195 10.52-2.167.809-.211 1.63-.41 2.464-.585 1.893-.634 3.847-1.12 5.715-1.842 3.983-1.332 7.88-2.95 11.677-4.793 20.042-9.685 36.711-26.006 47.044-45.725.199-.448.436-.921.685-1.369.523-1.046 1.058-2.104 1.543-3.187 1.171-2.452 2.154-5.004 3.1-7.544.71-1.755 1.233-3.573 1.83-5.39.324-1.121.635-2.291 1.021-3.411.622-2.49 1.22-5.005 1.718-7.52.112-.734.249-1.506.373-2.265-9.162.037-18.349 0-27.512.037-2.228 11.441-7.482 22.209-14.615 31.359-8.565 11.017-20.192 19.644-33.238 24.624-9.25 3.585-19.197 5.241-29.093 5.029V180.53c2.975.062 5.95-.1 8.913-.449 5.652-.796 11.179-2.452 16.383-4.817a56.543 56.543 0 0 0 10.917-6.623c9.063-6.884 15.923-16.545 19.595-27.288.149-.498.311-1.046.486-1.556-8.304.037-16.595.037-24.873 0-2.515 4.817-6.312 8.863-10.731 11.988-5.889 4.108-13.109 6.212-20.292 6.05-.137-.037-.274-.037-.398-.062V89.068a12.22 12.22 0 0 1 1.655 0c4.457-.074 8.901.947 12.984 2.702a33.956 33.956 0 0 1 11.976 8.515 32.068 32.068 0 0 1 4.096 5.477c.112.187.324.573.423.76 8.428.075 16.856.037 25.284.037-4.046-13.955-13.744-26.105-26.28-33.425-6.797-3.984-14.453-6.474-22.246-7.532-2.627-.224-5.278-.373-7.892-.31v-18.3a76.578 76.578 0 0 1 6.548.099c.149.037.448.1.61.124 5.228.224 10.395 1.282 15.449 2.614 12.162 3.536 23.466 10.01 32.529 18.873 9.287 8.95 16.345 20.267 20.092 32.604.648 1.718.971 3.535 1.507 5.253 9.299-.037 18.586 0 27.86 0a60.865 60.865 0 0 0-.211-1.556c-.137-.585-.212-1.158-.299-1.73-.311-1.146-.461-2.291-.697-3.436-.374-1.345-.697-2.714-1.034-4.084-.373-1.244-.734-2.452-1.132-3.697-1.034-3.498-2.316-6.909-3.76-10.258-10.507-24.474-30.736-44.617-55.31-54.912-9.063-3.859-18.661-6.274-28.421-7.494-1.158-.125-2.328-.087-3.449-.349a91.662 91.662 0 0 0-10.282-.286M11.174 270.163c4.681-2.067 9.934-2.316 14.951-1.781 4.57.473 9.15 2.44 12.001 6.15 1.668 2.067 2.739 4.532 3.71 6.972-3.946 1.083-8.005 1.805-11.976 2.738-.598-1.842-1.544-3.61-3.212-4.705-3.311-2.266-8.378-1.606-10.83 1.63-1.805 2.266-2.179 5.266-2.278 8.067-.05 2.963.037 6.013 1.058 8.814.846 2.465 3.2 4.27 5.789 4.519a7.846 7.846 0 0 0 3-.025c1.718-.211 3.398-1.021 4.444-2.415 1.32-1.631 2.004-3.672 2.44-5.677 3.996.897 7.855 2.403 11.851 3.287.137 1.195-.46 2.315-.834 3.436-1.494 4.046-4.394 7.631-8.303 9.548-4.233 2.141-9.125 2.129-13.756 1.917-3.486-.336-7.059-1.021-10.047-2.938-5.452-3.572-8.701-9.934-9.025-16.37-.41-4.257-.037-8.664 1.382-12.71 1.58-4.631 5.154-8.515 9.635-10.457Zm135.444 2.838c3.697-3.087 8.615-4.519 13.408-4.332 2.888-.062 5.788.137 8.639.66 1.482.323 2.975.771 4.258 1.63-.648 4.221-1.332 8.416-1.855 12.636-3.175-1.232-6.2-3.013-9.623-3.473-1.233-.249-2.614-.274-3.722.436-.66.585-1.233 1.767-.486 2.514.946.934 2.278 1.27 3.511 1.644 2.751.659 5.514 1.356 8.116 2.527 2.776 1.257 5.017 3.784 5.677 6.797 1.008 4.407.012 9.374-3.112 12.735-2.403 2.552-5.664 4.183-9.063 4.98-4.345 1.083-8.901.834-13.295.087-2.739-.623-5.54-1.307-8.03-2.677 1.133-3.598 1.818-7.357 2.776-11.017 2.764 1.544 5.876 2.403 9.026 2.701 1.419.249 2.875.038 4.257-.249 1.183-.311 2.216-1.593 1.643-2.826-1.207-1.606-3.398-1.792-5.203-2.253-3.262-.821-6.835-1.394-9.437-3.71-2.651-2.29-3.323-6.087-2.863-9.399.386-3.709 2.502-7.095 5.378-9.411Zm-85.499-4.071h8.74v22.856c-.997 1.955-1.582 4.121-2.466 6.138.822.025 1.644.025 2.465.025v9.735c-2.116 0-4.245.025-6.361.074-.448 1.507-1.07 2.963-1.594 4.457-5.266-.025-10.569-.012-15.847 0-.523-.012-1.046-.087-1.556-.162 1.618-3.56 2.826-7.307 4.307-10.955 4.096-10.718 8.241-21.424 12.312-32.168Zm8.74 0c2.9.013 5.813 0 8.726-.012 5.515 14.428 11.055 28.856 16.582 43.285H77.788c-.498-1.494-1.133-2.951-1.58-4.457a363.199 363.199 0 0 0-6.35-.062v-9.735c.81 0 1.643-.013 2.465-.013a545.717 545.717 0 0 1-2.378-6.324l-.087.174m28.97-22.843c6.398 0 12.797-.025 19.196-.013v11.764h-4.93c.013 2.665.025 5.316 0 7.98 1.643.025 3.287.025 4.93.025v11.503h-4.917v12.001c-4.756 0-9.511.025-14.28-.013.026-14.416.026-28.831 0-43.247Zm19.196-.013c2.378.013 4.755.013 7.133.038 5.565.834 10.021 5.415 11.578 10.706 1.207 4.519.759 9.585-1.731 13.606-1.817 2.826-4.444 5.279-7.693 6.324-1.469.511-3.05.635-4.594.598h-4.693v-11.503c.56-.012 1.095-.025 1.643-.025 1.469-.062 2.552-1.22 3.162-2.465.15-1.182.349-2.502-.324-3.56-.634-1.158-1.879-2.004-3.224-1.955h-1.257m60.626 16.732c.025-9.499-.025-18.997.025-28.508 4.743.025 9.498.025 14.254.012 0 9.051-.025 18.113 0 27.164-.013 1.394 1.033 2.564 2.228 3.162 2.477 1.369 5.975.635 7.482-1.805.411-1.22.261-2.515.286-3.785.012-8.253-.025-16.495.012-24.748 4.743.025 9.499.012 14.242.012 0 9.499.012 18.997 0 28.521 0 2.639-.896 5.253-2.527 7.332-2.876 3.722-7.283 6.1-11.851 7.034-4.121.672-8.441.597-12.424-.71-3.598-1.158-6.885-3.336-9.225-6.324-1.581-2.116-2.527-4.718-2.502-7.357Zm42.288-28.496c4.744 0 9.499.013 14.254-.012.013 10.507.013 21.014-.012 31.52 4.021.025 8.054-.012 12.063 0 .012 3.934 0 7.843.012 11.752-8.776.025-17.552 0-26.317.013V268.93Zm30.027 0c10.308 0 20.615.025 30.923-.012.199 3.884 0 7.78.1 11.664-5.59.237-11.18.05-16.782.1a140.99 140.99 0 0 1 0 4.009c5.59 0 11.18-.013 16.769.012 0 3.872-.037 7.756.025 11.64-5.59.236-11.192.037-16.781.099 0 1.332.012 2.664-.013 3.996h16.769c-.025 3.934 0 7.843 0 11.752-10.345.013-20.69.013-31.023 0 .013-14.416 0-28.844.013-43.26Zm-109.562 51.825c2.378.112 4.793-.1 7.17-.05v3.075c-1.269-.012-2.539.062-3.809.012 0 1.42 0 2.851-.012 4.283 1.282-.062 2.552.025 3.821-.013v3.797c-1.045-.884-2.539-.697-3.809-.759v7.345c-1.12 0-2.241-.013-3.361 0 0-5.901.012-11.802 0-17.69Zm7.17-.05c1.631.037 3.237.187 4.818.647 2.428 1.42 3.038 4.893 1.606 7.221-.722 1.195-2.066 1.83-3.386 2.054 2.602 2.042 3.747 5.216 5.714 7.78-1.307.025-2.627.025-3.934.038-1.506-2.179-2.751-4.581-4.668-6.436-.05-.063-.1-.1-.15-.15v-3.797c.76-.012 1.532-.049 2.291-.186 1.967-.312 2.054-3.486.112-3.934a15.527 15.527 0 0 0-2.403-.162m10.52-3.037c2.203.137 4.481-.088 6.722-.025v3.062c-1.12-.037-2.266.087-3.361.013v4.88c1.108-.038 2.241.037 3.361-.025v3.087c-1.133.012-2.266-.062-3.361-.012 0 2.215.012 4.431 0 6.647l-3.386.013c.05-5.889.037-11.764.025-17.64Zm6.722-.025c1.444.037 2.901.211 4.283.672 3.236 2.017 3.311 7.494.012 9.449-1.332.747-2.801.884-4.295.896v-3.087c.685-.05 1.357-.137 2.017-.361 1.631-.61 1.805-3.113.311-3.972-.747-.373-1.531-.497-2.328-.535m-60.688.486c2.427-4.395 9.436-5.254 12.76-1.469.809.859 1.158 2.016 1.568 3.099-1.12.212-2.228.449-3.361.61-.672-3.199-5.104-3.958-7.27-1.854-1.369 1.182-1.618 3.124-1.593 4.817-.025 1.805.323 3.859 1.842 5.03 1.631 1.182 4.145 1.257 5.652-.187.759-.672 1.045-1.681 1.406-2.589 1.108.298 2.216.634 3.337.958-.598 1.843-1.519 3.747-3.287 4.731-2.963 1.668-7.033 1.382-9.598-.946-1.531-1.32-2.303-3.274-2.664-5.204-.162-2.378-.05-4.905 1.208-6.996Zm22.332-3.523a11.292 11.292 0 0 1 2.664-.324v3.013c-2.141.062-4.207 1.307-4.88 3.435-.435 2.279-.597 4.88.81 6.86.933 1.307 2.502 1.967 4.07 1.967v3.062c-2.477.013-4.967-.884-6.598-2.813-1.942-2.39-2.203-5.677-1.767-8.615.41-3.037 2.651-5.876 5.701-6.585Zm2.664-.324c2.366 0 4.718.797 6.312 2.577 2.129 2.29 2.502 5.639 2.091 8.615-.348 2.614-1.879 5.153-4.344 6.274-1.245.572-2.652.859-4.059.871v-3.062c1.581.012 3.162-.635 4.084-1.967 1.319-1.98 1.307-4.556.759-6.797-.436-1.768-1.979-2.988-3.685-3.424a4.561 4.561 0 0 0-1.158-.074m45.14 11.639h3.362v3.374c-1.108 0-2.229 0-3.349-.013-.013-1.12-.013-2.228-.013-3.361Z"/>
</svg>
