<svg xmlns="http://www.w3.org/2000/svg" width="24" height="25" fill="none" viewBox="0 0 24 25">
  <path fill="#3B82F6" d="M11.23 25a2.005 2.005 0 0 0 1.938-1.714H9.217A2.005 2.005 0 0 0 11.23 25Zm11.155-4.62-.255-.226a10.796 10.796 0 0 1-1.886-2.2 9.487 9.487 0 0 1-1.014-3.614v-3.71a8.181 8.181 0 0 0-.12-1.345 5.634 5.634 0 0 1-4.5-5.53v-.472a7.94 7.94 0 0 0-2.494-.752v-.946a1.003 1.003 0 1 0-2.005 0v.984a8.12 8.12 0 0 0-6.986 8.06v3.71a9.488 9.488 0 0 1-1.014 3.614 10.817 10.817 0 0 1-1.856 2.201L0 20.379v2.119h22.385v-2.119Z"/>
  <path fill="#F43F5E" d="M20.244 7.512a3.756 3.756 0 1 0 0-7.512 3.756 3.756 0 0 0 0 7.512Z"/>
</svg>
