<svg xmlns="http://www.w3.org/2000/svg" width="14" height="15" fill="none" viewBox="0 0 14 15">
  <path fill="#D4D4D4" fill-rule="evenodd" d="m10.028 9.674 3.765 4.035a.785.785 0 0 1 .207.535c0 .2-.075.393-.207.535a.683.683 0 0 1-.5.221.683.683 0 0 1-.498-.222l-3.766-4.035c-1.126.935-2.542 1.374-3.96 1.23-1.417-.145-2.73-.862-3.671-2.007C.457 8.821-.042 7.336.003 5.81c.045-1.525.63-2.974 1.637-4.053C2.647.68 4 .051 5.423.003 6.846-.045 8.233.489 9.3 1.498c1.069 1.008 1.739 2.415 1.873 3.934a6.307 6.307 0 0 1-1.146 4.242ZM5.6 10.5c1.114 0 2.182-.475 2.97-1.318A4.668 4.668 0 0 0 9.8 6a4.668 4.668 0 0 0-1.23-3.182C7.782 1.974 6.714 1.5 5.6 1.5s-2.182.474-2.97 1.318A4.668 4.668 0 0 0 1.4 6c0 1.193.443 2.338 1.23 3.182.788.843 1.856 1.318 2.97 1.318Z" clip-rule="evenodd"/>
</svg>
