<svg xmlns="http://www.w3.org/2000/svg" width="93" height="77" fill="none" viewBox="0 0 93 77">
  <path fill="#fff" fill-opacity=".13" d="m52.544 4.994-7.95 4.148C39.683.939 28.59-1.992 19.803 2.592 11.02 7.174 7.88 17.53 12.789 25.732l-7.95 4.148c-4.374 2.281-5.953 7.488-3.51 11.57l26.659 44.54c2.443 4.082 8.02 5.556 12.394 3.274l47.707-24.887c4.373-2.281 5.952-7.488 3.508-11.57L64.94 8.268c-2.444-4.083-8.021-5.556-12.395-3.275ZM29.626 36.43c1.221 2.042.432 4.645-1.755 5.786-2.186 1.14-4.975.404-6.197-1.638l-4.443-7.423 7.951-4.148 4.444 7.423Zm-5.378-26.417c4.373-2.28 9.95-.807 12.394 3.276L20.74 21.585c-2.444-4.082-.865-9.29 3.508-11.57Zm29.231 13.974c1.222 2.041.433 4.645-1.754 5.785-2.187 1.14-4.975.404-6.197-1.637l-4.443-7.423 7.951-4.148 4.443 7.423Z"/>
</svg>
