<svg xmlns="http://www.w3.org/2000/svg" width="122" height="75" fill="none" viewBox="0 0 122 75">
  <path fill="#fff" fill-opacity=".13" d="M61.956 87.402c-4.928 2.315-6.885 7.953-4.404 12.554 2.48 4.601 8.496 6.492 13.423 4.177 4.928-2.315 6.93-7.974 4.449-12.575-2.48-4.601-8.541-6.471-13.469-4.156ZM1.255 37.287c1.24 2.3 4.27 3.236 6.734 2.078l4.48-2.104 33.24 24.17-.545 13.048c-.248 7.141 7.728 11.939 14.536 8.74l49.272-23.151c2.463-1.158 3.464-3.987 2.224-6.288-1.24-2.3-4.271-3.235-6.734-2.078L55.19 74.853l.418-10.68 33.37-15.68c3.359-1.579 5.39-4.683 5.516-7.992l1.4-34.68a4.41 4.41 0 0 0-.556-2.34A4.799 4.799 0 0 0 93.61 1.71a5.243 5.243 0 0 0-2.44-.739 5.295 5.295 0 0 0-2.511.49L22.367 32.61l-6.225-4.572a5.183 5.183 0 0 0-2.582-.967 5.286 5.286 0 0 0-2.735.477L3.48 31c-2.463 1.157-3.464 3.987-2.224 6.287Zm105.493 29.068c-4.928 2.315-6.885 7.953-4.404 12.554 2.48 4.601 8.496 6.493 13.424 4.178 4.927-2.316 6.928-7.974 4.448-12.575-2.481-4.601-8.541-6.472-13.468-4.157Z"/>
</svg>
