<svg xmlns="http://www.w3.org/2000/svg" width="17" height="15" fill="none" viewBox="0 0 17 15">
  <path fill="#A5B4FC" d="M.944 8.333h5.667c.52 0 .945-.375.945-.833V.833C7.556.375 7.13 0 6.61 0H.944C.425 0 0 .375 0 .833V7.5c0 .458.425.833.944.833Zm0 6.667h5.667c.52 0 .945-.375.945-.833v-3.334c0-.458-.425-.833-.945-.833H.944c-.519 0-.944.375-.944.833v3.334c0 .458.425.833.944.833Zm9.445 0h5.667c.519 0 .944-.375.944-.833V7.5c0-.458-.425-.833-.944-.833h-5.667c-.52 0-.945.375-.945.833v6.667c0 .458.425.833.945.833ZM9.444.833v3.334c0 .458.425.833.945.833h5.667c.519 0 .944-.375.944-.833V.833C17 .375 16.575 0 16.056 0h-5.667c-.52 0-.945.375-.945.833Z"/>
</svg>
