<svg xmlns="http://www.w3.org/2000/svg" width="22" height="21" fill="none" viewBox="0 0 22 21">
  <path fill="#2A4178" d="M1.222 11.328h7.334c.672 0 1.222-.51 1.222-1.133V1.133C9.778.51 9.228 0 8.556 0H1.222C.55 0 0 .51 0 1.133v9.062c0 .623.55 1.133 1.222 1.133Zm0 9.063h7.334c.672 0 1.222-.51 1.222-1.133v-4.531c0-.623-.55-1.133-1.222-1.133H1.222c-.672 0-1.222.51-1.222 1.133v4.531c0 .623.55 1.133 1.222 1.133Zm12.222 0h7.334c.672 0 1.222-.51 1.222-1.133v-9.063c0-.623-.55-1.132-1.222-1.132h-7.334c-.672 0-1.222.51-1.222 1.132v9.063c0 .623.55 1.133 1.222 1.133ZM12.222 1.133v4.531c0 .623.55 1.133 1.222 1.133h7.334c.672 0 1.222-.51 1.222-1.133V1.133C22 .51 21.45 0 20.778 0h-7.334c-.672 0-1.222.51-1.222 1.133Z"/>
</svg>
