<svg xmlns="http://www.w3.org/2000/svg" width="116" height="78" fill="none" viewBox="0 0 116 78">
  <path fill="#fff" fill-opacity=".13" d="m85.983 10.348-10.937 4.184-3.523-8.245c-1.937-4.535-7.46-6.739-12.273-4.898L6.75 21.473c-4.812 1.841-7.165 7.058-5.227 11.592l15.851 37.103c1.938 4.534 7.46 6.738 12.273 4.897 2.924 6.843 11.147 10.125 18.409 7.347 7.263-2.779 10.765-10.546 7.841-17.389l26.25-10.042c2.924 6.844 11.147 10.125 18.409 7.347 7.263-2.779 10.765-10.545 7.841-17.389l4.375-1.673c2.407-.92 3.583-3.529 2.614-5.796l-5.865-13.728c-.757-1.773-2.11-3.27-3.864-4.278l-15.47-8.806a5.031 5.031 0 0 0-4.204-.31Zm-41.45 63.819c-2.406.92-5.167-.182-6.136-2.45-.969-2.266.208-4.875 2.614-5.795 2.406-.92 5.167.181 6.136 2.449.969 2.267-.207 4.875-2.614 5.796ZM88.625 16.53l12.978 7.026-19.512 7.465-4.403-10.306 10.937-4.185Zm8.409 37.552c-2.407.92-5.168-.182-6.137-2.449-.968-2.267.208-4.876 2.614-5.796 2.406-.92 5.168.181 6.136 2.449.969 2.267-.207 4.875-2.613 5.796Z"/>
</svg>
